<?xml version="1.0" encoding="utf-8"?>
<!-- Generator: Adobe Illustrator 22.1.0, SVG Export Plug-In . SVG Version: 6.00 Build 0)  -->
<svg version="1.1" id="Layer_1" xmlns="http://www.w3.org/2000/svg" xmlns:xlink="http://www.w3.org/1999/xlink" x="0px" y="0px"
	 viewBox="0 0 92 78" style="enable-background:new 0 0 92 78;" xml:space="preserve">
<style type="text/css">
	.st0{fill:#E18934;}
	.st1{fill:#FFFFFF;}
	.st2{fill:#310E31;}
	.st3{fill:#1470B8;}
	.st4{fill:#C9DEE8;}
	.st5{fill:#FFE27A;}
	.st6{fill:#0261A5;}
	.st7{fill:#182D59;}
	.st8{fill:#112444;}
	.st9{fill:#2B436D;}
	.st10{fill:#90CEF1;}
	.st11{fill:#70B7E5;}
	.st12{fill:#A5DFF9;}
	.st13{fill:#E1F4FD;}
	.st14{fill:#6C9ABB;}
	.st15{fill:#FBAE47;}
	.st16{fill:#C16528;}
	.st17{fill:#D5E3EF;}
	.st18{fill:#80C56D;}
	.st19{fill:#5BAB5E;}
	.st20{fill:#B25126;}
	.st21{fill:#3689C9;}
	.st22{fill:#FACC6D;}
	.st23{fill:#4C9CD6;}
	.st24{fill:#DDAC87;}
	.st25{fill:#D07430;}
	.st26{fill:#9DC0CE;}
	.st27{fill:#C7EAFB;}
	.st28{fill:#EC9C4F;}
	.st29{fill:#C9D5E3;}
	.st30{fill:#B0C4D9;}
	.st31{fill:#99B5CD;}
	.st32{fill:#4A9451;}
	.st33{fill:#FBEBD6;}
	.st34{fill:#FEE5D2;}
	.st35{fill:#F4CEAB;}
	.st36{fill:#FEE1C5;}
	.st37{fill:#F6D6B5;}
	.st38{fill:#E8BA97;}
	.st39{fill:#E3AE87;}
	.st40{fill:#9FCEEF;}
	.st41{fill:#3183BB;}
	.st42{fill:#FFE278;}
	.st43{fill:#683254;}
</style>
<polygon class="st16" points="7,65 7,69 7,77 10,77 12,69 34,69 36,77 40,77 43,77 43,69 43,65 "/>
<path class="st15" d="M39,22v21c0,1.7-1.3,3-3,3H14c-1.7,0-3-1.3-3-3V22H7H3v55h4V65h36V22H39z"/>
<g>
	<g>
		<rect x="53" y="28" class="st17" width="12" height="12"/>
	</g>
	<g>
		<rect x="67" y="28" class="st17" width="12" height="12"/>
	</g>
	<g>
		<rect x="53" y="42" class="st17" width="12" height="12"/>
	</g>
	<g>
		<rect x="67" y="42" class="st17" width="12" height="12"/>
	</g>
</g>
<g>
	<g>
		<path class="st18" d="M47.4,57l-2.8-0.9c-0.6,2.2-0.7,4.5-0.4,6.8c2.7,0.4,5.6,0.1,8.2-0.8c0.2-0.1,0-1.5-0.1-2.7
			c-0.1-0.5,0.6-0.8,0.9-0.5l2,2c1.4-0.8,2.6-1.7,3.8-2.8c0.7-0.7,1.3-1.5,1.9-2.3L59.6,52c-0.2-0.5,0.5-0.9,0.9-0.5l1.8,1.8
			c1.5-3.1,2.1-6.6,1.6-10c-5.2-0.7-10.7,0.9-14.7,4.9c-1.9,1.9-3.3,4.2-4.1,6.5L47.4,57z"/>
	</g>
	<g>
		<path class="st19" d="M49.1,48.1c-1.9,1.9-3.3,4.2-4.1,6.5l2.4,2.4l-2.8-0.9c-0.6,2.2-0.7,4.5-0.4,6.8l17.5-17.5
			c0.9-0.9,0.2-2.4-1-2.3C56.5,43.2,52.3,44.9,49.1,48.1z"/>
	</g>
	<g>
		<path class="st18" d="M41.6,53l2.8-0.9c0.6,2.2,0.7,4.5,0.4,6.8c-3,0.4-6,0.1-8.8-1.1c-0.1,0,0.3-1.4,0.6-2.5
			c0.1-0.4-0.4-0.8-0.8-0.4l-1.9,1.9c-1.4-0.8-2.6-1.7-3.8-2.8c-0.7-0.7-1.3-1.5-1.9-2.3l1.4-4.2c0.1-0.4-0.4-0.7-0.7-0.4l-2.2,2.2
			c-1.5-3.1-2.1-6.6-1.6-10c5.2-0.7,10.7,0.9,14.7,4.9c1.9,1.9,3.3,4.2,4.1,6.5L41.6,53z"/>
	</g>
	<g>
		<path class="st19" d="M39.9,44.1c1.9,1.9,3.3,4.2,4.1,6.5L41.6,53l2.8-0.9c0.6,2.2,0.7,4.5,0.4,6.8L27,41c-0.7-0.7-0.2-2,0.8-2
			C32.2,39.1,36.6,40.7,39.9,44.1z"/>
	</g>
	<g>
		<path class="st19" d="M49.2,50.9l2.7-1.4c0-0.5,0.1-1,0.1-1.5c0-1.7-0.3-3.4-0.7-5h-1.5c-0.5,0-0.8-0.7-0.3-1
			c0.6-0.4,1.1-0.9,1.1-1c-1.2-2.8-3.1-5.2-5.5-7c-1.5,1.1-2.8,2.5-3.9,4.1L43,39h-2.5c-1.5,2.5-2.4,5.4-2.5,8.5l2.9,1.4
			c0.5,0.3,0.3,1.1-0.2,1.1h-2.5c0.6,4.9,3.1,9.2,6.9,12c3.2-2.4,5.6-5.9,6.5-10h-2.1C48.9,52,48.7,51.2,49.2,50.9z"/>
	</g>
	<g>
		<path class="st18" d="M49.8,43c-0.5,0-0.8-0.7-0.3-1c0.6-0.4,1.1-0.9,1.1-1c-0.6-1.3-1.3-2.6-2.2-3.7c-1.1-1.4-3.3-0.6-3.3,1.2
			L45,62c3.2-2.4,5.6-5.9,6.5-10h-2.1c-0.6,0-0.8-0.8-0.3-1.1l2.7-1.4c0-0.5,0.1-1,0.1-1.5c0-1.7-0.3-3.4-0.7-5H49.8z"/>
	</g>
</g>
<g>
	<rect x="8" y="70" class="st20" width="3" height="2"/>
</g>
<g>
	<polygon class="st16" points="86,77 82,77 80,69 84,69 	"/>
</g>
<g>
	<polygon class="st20" points="84,72 81,72 80,70 84,70 	"/>
</g>
<polygon class="st20" points="40,70 39,70 34,70 35,72 39,72 40,72 42,72 42,70 "/>
<g>
	<path class="st21" d="M84,65H55c-1.1,0-2-0.9-2-2v-4c0-1.1,0.9-2,2-2h29c1.1,0,2,0.9,2,2v4C86,64.1,85.1,65,84,65z"/>
</g>
<g>
	<path class="st3" d="M84,60.5V62c0,0.6-0.4,1-1,1H56c-0.6,0-1-0.4-1-1v-3c0-0.3-0.2-0.5-0.5-0.5S54,58.7,54,59v4c0,0.6,0.4,1,1,1
		h29c0.6,0,1-0.4,1-1v-2.5c0-0.3-0.2-0.5-0.5-0.5l0,0C84.2,60,84,60.2,84,60.5z"/>
</g>
<g>
	<path class="st6" d="M54.5,63L54.5,63c-0.3,0-0.5-0.2-0.5-0.5V59c0-0.3,0.2-0.5,0.5-0.5l0,0c0.3,0,0.5,0.2,0.5,0.5v3.5
		C55,62.8,54.8,63,54.5,63z"/>
</g>
<g>
	<path class="st16" d="M39,46h-9h2c1.7,0,3-1.3,3-3V27c0-1.1,0.9-2,2-2h0c1.1,0,2,0.9,2,2V46z"/>
</g>
<g>
	<g>
		<path class="st0" d="M39,22v21c0,1.7-1.3,3-3,3H21l10,11h8v7l1,1h3V22H39z"/>
	</g>
</g>
<path class="st2" d="M43,20h-4c-0.6,0-1,0.4-1,1v22c0,1.1-0.9,2-2,2h-0.5c0.3-0.6,0.5-1.3,0.5-2V22h-2v21c0,1.1-0.9,2-2,2h-2H14
	c-1.1,0-2-0.9-2-2V21c0-0.6-0.4-1-1-1H7H3c-0.6,0-1,0.4-1,1v56c0,0.6,0.4,1,1,1h4c0.6,0,1-0.4,1-1V66h3l-1-2H8V22h2v21
	c0,2.2,1.8,4,4,4h16h5h1c2.2,0,4-1.8,4-4V22h2v42h-2l-1,2h4c0.6,0,1-0.4,1-1V21C44,20.4,43.6,20,43,20z M6,76H4V22h2v43V76z"/>
<g>
	<path class="st22" d="M4,22v1v37h0c0.6,0,1-0.4,1-1V24c0-0.6,0.4-1,1-1h0v-1H4z"/>
</g>
<g>
	<polygon class="st0" points="10,36 8,33 8,31 10,31 	"/>
</g>
<path class="st2" d="M43,64H7c-0.6,0-1,0.4-1,1v12c0,0.6,0.4,1,1,1h3c0.5,0,0.9-0.3,1-0.8l1.2-5c0.3-1.3,1.5-2.3,2.9-2.3H30h0.9
	c1.4,0,2.6,0.9,2.9,2.3l1.2,5c0.1,0.4,0.5,0.8,1,0.8h4h3c0.6,0,1-0.4,1-1V65C44,64.4,43.6,64,43,64z M36.8,76l-1.1-4.2
	c-0.2-0.7-0.5-1.3-0.8-1.8c1.4,0,2.6,0.9,2.9,2.3l0.9,3.7h0H36.8z M42,76h-1.2l-1.1-4.2c-0.6-2.2-2.6-3.8-4.9-3.8H30H15.1
	c-2.3,0-4.3,1.6-4.9,3.8L9.2,76H8V66h34V76z"/>
<g>
	<path class="st23" d="M56,58L56,58c0.6,0.6,1.5,1,2.4,1h24.2c0.9,0,1.8-0.4,2.4-1H56z"/>
</g>
<g>
	<path class="st24" d="M43,31V21h46v10c-6.4,4-14.7,6-23,6C57.7,37,49.4,35,43,31z"/>
	<path class="st2" d="M66,38c-8.9,0-17.2-2.2-23.5-6.2C42.2,31.7,42,31.3,42,31V21c0-0.6,0.4-1,1-1h46c0.6,0,1,0.4,1,1v10
		c0,0.3-0.2,0.7-0.5,0.8C83.2,35.8,74.9,38,66,38z M44,30.4C49.9,34,57.7,36,66,36s16.1-2,22-5.6V22H44V30.4z"/>
</g>
<g>
	<path class="st2" d="M91,78H1c-0.6,0-1-0.4-1-1s0.4-1,1-1h90c0.6,0,1,0.4,1,1S91.6,78,91,78z"/>
</g>
<g>
	<path class="st2" d="M84,66H55c-1.7,0-3-1.3-3-3v-4c0-1.7,1.3-3,3-3h29c1.7,0,3,1.3,3,3v4C87,64.7,85.7,66,84,66z M55,58
		c-0.6,0-1,0.4-1,1v4c0,0.6,0.4,1,1,1h29c0.6,0,1-0.4,1-1v-4c0-0.6-0.4-1-1-1H55z"/>
</g>
<g>
	<path class="st2" d="M57,58H47c-0.6,0-1-0.4-1-1s0.4-1,1-1h10c0.6,0,1,0.4,1,1S57.6,58,57,58z"/>
</g>
<g>
	<path class="st25" d="M53,65v4v8h3l2-8h22.9c1.8,0,3.4,1.2,3.9,3l1.2,5h3v-8v-4H53z"/>
</g>
<path class="st2" d="M89,64H53c-0.6,0-1,0.4-1,1v12c0,0.6,0.4,1,1,1h3c0.5,0,0.9-0.3,1-0.8l1.2-5c0.3-1.3,1.5-2.3,2.9-2.3H76h0.9
	c1.4,0,2.6,0.9,2.9,2.3l1.2,5c0.1,0.4,0.5,0.8,1,0.8h4h3c0.6,0,1-0.4,1-1V65C90,64.4,89.6,64,89,64z M82.8,76l-1.1-4.2
	c-0.2-0.7-0.5-1.3-0.8-1.8c1.4,0,2.6,0.9,2.9,2.3l0.9,3.7h0H82.8z M88,76h-1.2l-1.1-4.2c-0.6-2.2-2.6-3.8-4.9-3.8H76H61.1
	c-2.3,0-4.3,1.6-4.9,3.8L55.2,76H54V66h34V76z"/>
<g>
	<path class="st2" d="M53,78c-0.6,0-1-0.4-1-1V21c0-0.6,0.4-1,1-1s1,0.4,1,1v56C54,77.6,53.6,78,53,78z"/>
</g>
<g>
	<path class="st2" d="M89,70c-0.6,0-1-0.4-1-1V21c0-0.6,0.4-1,1-1s1,0.4,1,1v48C90,69.6,89.6,70,89,70z"/>
</g>
<g>
	<g>
		<path class="st15" d="M7,65v4h39c1.7,0,3,1.3,3,3v5h4v-8v-4H7z"/>
	</g>
	<g>
		<path class="st2" d="M53,78h-4c-0.6,0-1-0.4-1-1v-5c0-1.1-0.9-2-2-2H7c-0.6,0-1-0.4-1-1v-4c0-0.6,0.4-1,1-1h46c0.6,0,1,0.4,1,1v12
			C54,77.6,53.6,78,53,78z M50,76h2V66H8v2h38c2.2,0,4,1.8,4,4V76z"/>
	</g>
	<g>
		<rect x="8" y="66" class="st22" width="44" height="1"/>
	</g>
</g>
<g>
	<g>
		<path class="st33" d="M7,31V21h46v10c-6.4,4-14.7,6-23,6S13.4,35,7,31z"/>
	</g>
	<g>
		<polygon class="st34" points="52,31 48,33 44,31 44,22 52,22 		"/>
	</g>
	<g>
		<rect x="10" y="22" class="st35" width="2" height="11"/>
	</g>
	<g>
		<rect x="8" y="22" class="st36" width="2" height="10"/>
	</g>
	<g>
		<polygon class="st36" points="42,35 40,36 40,23 42,23 		"/>
	</g>
	<g>
		<rect x="36" y="23" class="st36" width="2" height="13"/>
	</g>
	<g>
		<path class="st1" d="M49.5,22H8v1.1c-0.2-0.2-0.5-0.3-0.7-0.5c-0.2-0.2-0.5-0.1-0.7,0.1c-0.2,0.2-0.1,0.5,0.1,0.7
			C7.1,23.7,7.6,24,8,24.3v1.8c-0.2-0.2-0.5-0.3-0.7-0.5c-0.2-0.2-0.5-0.1-0.7,0.1c-0.2,0.2-0.1,0.5,0.1,0.7C7.1,26.7,7.6,27,8,27.3
			V31c0,0.3,0.2,0.5,0.5,0.5S9,31.3,9,31v-3.1c5.9,3.6,13.2,5.6,21,5.6c0.3,0,0.5-0.2,0.5-0.5s-0.2-0.5-0.5-0.5
			c-7.1,0-13.8-1.7-19.4-4.8c-1-0.6-1.6-1.6-1.6-2.8v0c5.9,3.6,13.2,5.6,21,5.6c0.3,0,0.5-0.2,0.5-0.5s-0.2-0.5-0.5-0.5
			c-7.5,0-14.6-1.9-20.3-5.3C9.2,23.9,9.4,23,10,23c0,0,0,0,0,0h39.5c0.3,0,0.5-0.2,0.5-0.5C50,22.2,49.8,22,49.5,22z"/>
	</g>
	<g>
		<g>
			<rect x="10" y="22" class="st33" width="2" height="1"/>
		</g>
		<g>
			<path class="st33" d="M10,25.5c0.7,0.4,1.3,0.7,2,1v-1.1c-0.7-0.3-1.3-0.7-2-1.1V25.5z"/>
		</g>
		<g>
			<path class="st33" d="M12,28.4c-0.5-0.2-0.9-0.5-1.4-0.7c-0.2-0.1-0.4-0.3-0.6-0.5v1.2c0.7,0.4,1.3,0.7,2,1V28.4z"/>
		</g>
	</g>
	<g>
		<g>
			<path class="st37" d="M47,34.2c-0.1,0-0.3,0-0.4-0.1c-1.5-0.7-2.8-1.4-4.1-2.3c-0.5-0.3-0.6-0.9-0.3-1.4c0.3-0.5,0.9-0.6,1.4-0.3
				c1.2,0.8,2.5,1.5,3.9,2.1c0.5,0.2,0.7,0.8,0.5,1.3C47.7,34,47.4,34.2,47,34.2z"/>
		</g>
	</g>
	<g>
		<rect x="42" y="22" class="st35" width="2" height="13"/>
	</g>
	<g>
		<rect x="34" y="22" class="st35" width="2" height="15"/>
	</g>
	<g>
		<polygon class="st35" points="40,36 38,37 38,22 40,22 		"/>
	</g>
	<g>
		<path class="st38" d="M51.5,23c-0.3,0-0.5,0.2-0.5,0.5v0c0,1.1-0.6,2.1-1.6,2.6c-5.8,2.7-12.5,4-19.4,4c-7.9,0-15.7-1.8-22-5.4
			v0.4c5.9,3.6,13.7,6.2,22,6.2c7.4,0,14.4-1.8,20-4.8c0.5-0.2,1,0.1,1,0.6l0,1.1c-6.1,3.2-13.5,4.8-21,4.8c-7.9,0-15.7-1.8-22-5.4
			v0.4c5.9,3.6,13.7,6.2,22,6.2c7.4,0,14.4-1.8,20-4.8c0.5-0.2,1,0.1,1,0.6l0,1.3c0,0.3,0.2,0.5,0.5,0.5s0.5-0.2,0.5-0.5v-3v-0.8
			v-2.2v-0.8v-1.2C52,23.2,51.8,23,51.5,23z"/>
	</g>
	<g>
		<rect x="34" y="22" class="st33" width="2" height="1"/>
	</g>
	<g>
		<rect x="38" y="22" class="st33" width="2" height="1"/>
	</g>
	<g>
		<rect x="42" y="22" class="st33" width="2" height="1"/>
	</g>
	<path class="st2" d="M53,20H7c-0.6,0-1,0.4-1,1v10c0,0.3,0.2,0.7,0.5,0.8c6.3,4,14.7,6.2,23.5,6.2c8.9,0,17.2-2.2,23.5-6.2
		c0.3-0.2,0.5-0.5,0.5-0.8V21C54,20.4,53.6,20,53,20z M8,25.1c6.1,3.4,13.8,5.4,22,5.4c8.2,0,15.9-1.9,22-5.4V27
		c-6,3.5-13.7,5.5-22,5.5c-8.3,0-16-2-22-5.5V25.1z M52,22v2c-6,3.5-13.7,5.5-22,5.5c-8.3,0-16-2-22-5.5v-2H52z M30,36
		c-8.3,0-16.1-2-22-5.6v-2.3c6.1,3.4,13.8,5.4,22,5.4c8.2,0,15.9-1.9,22-5.4v2.3C46.1,34,38.3,36,30,36z"/>
</g>
<g>
	<g>
		<path class="st37" d="M89,21v9c-5,4-11.5,6-18,6s-13-2-18-6v-9H89z"/>
	</g>
	<g>
		<path class="st39" d="M87.5,23c-0.3,0-0.5,0.2-0.5,0.5v0c0,1.2-0.7,2.4-1.7,3C81,28.9,76,30.1,71,30.1c-6.1,0-12.2-1.8-17-5.4V25
			c4.6,3.6,10.6,6.4,17,6.4c5.5,0,10.6-1.7,14.9-4.4c0.5-0.3,1.1,0,1.1,0.6l0,0.8c-4.7,3.1-10.3,4.7-16,4.7c-6.1,0-12.2-1.8-17-5.4
			V28c4.6,3.6,10.6,6.4,17,6.4c5.5,0,10.6-1.7,14.9-4.4c0.5-0.3,1.1,0,1.1,0.6l0,0.9c0,0.3,0.2,0.5,0.5,0.5s0.5-0.2,0.5-0.5v-3v-0.8
			v-2.2v-0.8v-1.2C88,23.2,87.8,23,87.5,23z"/>
	</g>
	<g>
		<path class="st33" d="M81.5,22h-28c-0.3,0-0.5,0.2-0.5,0.5c0,0,0,0,0,0c-0.1,0-0.3,0.1-0.4,0.2c-0.2,0.2-0.2,0.5,0,0.7
			c0.4,0.4,0.9,0.8,1.3,1.2v1.7c-0.2-0.2-0.4-0.4-0.7-0.6c-0.2-0.2-0.5-0.2-0.7,0c-0.2,0.2-0.2,0.5,0,0.7c0.4,0.4,0.9,0.8,1.3,1.2v4
			c0,0.3,0.2,0.5,0.5,0.5s0.5-0.2,0.5-0.5v-3.2c4.5,3.4,10.1,5.2,16,5.2c0.3,0,0.5-0.2,0.5-0.5s-0.2-0.5-0.5-0.5
			c-5.3,0-10.3-1.5-14.5-4.4c-0.9-0.6-1.5-1.7-1.5-2.8v0c4.5,3.4,10.1,5.2,16,5.2c0.3,0,0.5-0.2,0.5-0.5s-0.2-0.5-0.5-0.5
			c-5.8,0-11.3-1.8-15.7-5.2c-0.2-0.1-0.3-0.3-0.3-0.6v0c0-0.4,0.3-0.7,0.7-0.7h25.8c0.3,0,0.5-0.2,0.5-0.5C82,22.2,81.8,22,81.5,22
			z M53.7,23H54v0.2C53.9,23.2,53.8,23.1,53.7,23z"/>
	</g>
	<path class="st2" d="M89,20H53c-0.6,0-1,0.4-1,1v10c0,0.3,0.1,0.6,0.4,0.8c5,4,11.6,6.2,18.6,6.2s13.6-2.2,18.6-6.2
		c0.2-0.2,0.4-0.5,0.4-0.8V21C90,20.4,89.6,20,89,20z M54,25.3c4.7,3.3,10.7,5.2,17,5.2s12.3-1.8,17-5.2v1.8
		c-4.6,3.5-10.6,5.4-17,5.4s-12.4-1.9-17-5.4V25.3z M88,22v2.1c-4.6,3.5-10.6,5.4-17,5.4s-12.4-1.9-17-5.4V22H88z M71,36
		c-6.4,0-12.4-1.9-17-5.5v-2.2c4.7,3.3,10.7,5.2,17,5.2s12.3-1.8,17-5.2v2.2C83.4,34.1,77.4,36,71,36z"/>
</g>
<g>
	<g>
		<path class="st1" d="M51,65l-39,0c-1.1,0-2-0.9-2-2v-4c0-1.1,0.9-2,2-2l39,0c1.1,0,2,0.9,2,2v4C53,64.1,52.1,65,51,65z"/>
	</g>
	<g>
		<path class="st29" d="M51.6,61.9c-0.3,0.7-1,1.1-1.8,1.1H13c-0.6,0-1-0.4-1-1v-3c0-0.3-0.2-0.5-0.5-0.5S11,58.7,11,59v4
			c0,0.6,0.4,1,1,1h40v-1v-2L51.6,61.9z"/>
	</g>
	<g>
		<rect x="21" y="57" class="st23" width="5" height="8"/>
	</g>
	<g>
		<path class="st11" d="M51,65H26v-8h25c1.1,0,2,0.9,2,2v4C53,64.1,52.1,65,51,65z"/>
	</g>
	<g>
		<path class="st40" d="M27,58c0.6,0.6,1.5,1,2.4,1h19.2c0.9,0,1.8-0.4,2.4-1H27L27,58z"/>
	</g>
	<g>
		<path class="st23" d="M51,60.5V62c0,0.6-0.4,1-1,1H27v1h24c0.6,0,1-0.4,1-1v-2.5c0-0.3-0.2-0.5-0.5-0.5l0,0
			C51.2,60,51,60.2,51,60.5z"/>
	</g>
	<g>
		<rect x="22" y="63" class="st41" width="3" height="1"/>
	</g>
	<path class="st2" d="M51,56H26h-5h-9c-1.7,0-3,1.3-3,3v4c0,1.7,1.3,3,3,3h9h5h25c1.7,0,3-1.3,3-3v-4C54,57.3,52.7,56,51,56z M11,63
		v-4c0-0.6,0.4-1,1-1h8v6h-8C11.4,64,11,63.6,11,63z M22,58h3v6h-3V58z M52,63c0,0.6-0.4,1-1,1H27v-6h24c0.6,0,1,0.4,1,1V63z"/>
	<g>
		<path class="st11" d="M22,58v1v2.5c0,0.3,0.2,0.5,0.5,0.5s0.5-0.2,0.5-0.5V60c0-0.6,0.4-1,1-1h1v-1H22z"/>
	</g>
</g>
<g>
	<g>
		<path class="st31" d="M43,51H32l4,6h6h5.9c0.1-0.3,0.1-0.8,0.1-1.2c0-2.7-2.1-4.8-4.8-4.8H43z"/>
		<path class="st2" d="M47.9,58H36c-0.3,0-0.6-0.2-0.8-0.4l-4-6c-0.2-0.3-0.2-0.7,0-1c0.2-0.3,0.5-0.5,0.9-0.5h11.2
			c3.2,0,5.8,2.6,5.8,5.8c0,0.5-0.1,1-0.2,1.4C48.7,57.7,48.3,58,47.9,58z M36.5,56H47c0-0.1,0-0.1,0-0.2c0-2.1-1.7-3.8-3.8-3.8
			h-9.3L36.5,56z"/>
	</g>
	<g>
		<g>
			<path class="st14" d="M47,56h-8c-0.3,0-0.5-0.2-0.5-0.5S38.7,55,39,55h5c0.8,0,1.3-0.9,0.9-1.6c-0.2-0.3,0.2-0.9,0.4-0.7
				c1,0.6,1.6,1.7,1.7,2.8L47,56z"/>
		</g>
	</g>
	<g>
		<path class="st30" d="M32.2,51c-0.4,0-0.7,0.1-1.1,0.1c-0.1,0.3-0.1,0.7-0.1,1.1c0,2.7,2.1,4.8,4.8,4.8c0.4,0,0.7-0.1,1.1-0.1
			c0.1-0.3,0.1-0.7,0.1-1.1C37,53.1,34.9,51,32.2,51z"/>
	</g>
	<g>
		<path class="st29" d="M42.5,53h-6c-0.3,0-0.5-0.2-0.5-0.5l0,0c0-0.3,0.2-0.5,0.5-0.5h6c0.3,0,0.5,0.2,0.5,0.5l0,0
			C43,52.8,42.8,53,42.5,53z"/>
	</g>
	<g>
		<path class="st2" d="M47.9,58H36c-0.6,0-1-0.4-1-1s0.4-1,1-1h11c0-0.1,0-0.1,0-0.2c0-2.1-1.7-3.8-3.8-3.8H32c-0.6,0-1-0.4-1-1
			s0.4-1,1-1h11.2c3.2,0,5.8,2.6,5.8,5.8c0,0.5-0.1,1-0.2,1.4C48.7,57.7,48.3,58,47.9,58z"/>
	</g>
	<g>
		<path class="st2" d="M35.8,58c-3.2,0-5.8-2.6-5.8-5.8c0-0.4,0.1-0.8,0.2-1.3c0.1-0.4,0.4-0.7,0.8-0.8c0.5-0.1,0.9-0.2,1.3-0.2
			c3.2,0,5.8,2.6,5.8,5.8c0,0.4-0.1,0.8-0.2,1.3c-0.1,0.4-0.4,0.7-0.8,0.8C36.6,57.9,36.2,58,35.8,58z M36.9,56.9L36.9,56.9
			L36.9,56.9z M32,52c0,0.1,0,0.1,0,0.2c0,2.2,1.8,3.9,4,3.8c0-0.1,0-0.1,0-0.2c0-2.1-1.7-3.8-3.8-3.8C32.1,52,32.1,52,32,52z"/>
	</g>
</g>
<g>
	<g>
		<path class="st17" d="M24,51H13l4,6h6h5.9c0.1-0.3,0.1-0.8,0.1-1.2c0-2.7-2.1-4.8-4.8-4.8H24z"/>
	</g>
	<g>
		<g>
			<path class="st30" d="M28,56h-8c-0.3,0-0.5-0.2-0.5-0.5S19.7,55,20,55h5c0.8,0,1.3-0.9,0.9-1.6c-0.2-0.3,0.2-0.9,0.4-0.7
				c1,0.6,1.6,1.7,1.7,2.8L28,56z"/>
		</g>
	</g>
	<g>
		<path class="st1" d="M13.2,51c-0.4,0-0.7,0.1-1.1,0.1c-0.1,0.3-0.1,0.7-0.1,1.1c0,2.7,2.1,4.8,4.8,4.8c0.4,0,0.7-0.1,1.1-0.1
			c0.1-0.3,0.1-0.7,0.1-1.1C18,53.1,15.9,51,13.2,51z"/>
	</g>
	<g>
		<path class="st1" d="M23.5,53h-6c-0.3,0-0.5-0.2-0.5-0.5l0,0c0-0.3,0.2-0.5,0.5-0.5h6c0.3,0,0.5,0.2,0.5,0.5l0,0
			C24,52.8,23.8,53,23.5,53z"/>
	</g>
	<g>
		<path class="st2" d="M28.9,58H17c-0.6,0-1-0.4-1-1s0.4-1,1-1h11c0-0.1,0-0.1,0-0.2c0-2.1-1.7-3.8-3.8-3.8H13c-0.6,0-1-0.4-1-1
			s0.4-1,1-1h11.2c3.2,0,5.8,2.6,5.8,5.8c0,0.5-0.1,1-0.2,1.4C29.7,57.7,29.3,58,28.9,58z"/>
	</g>
	<g>
		<path class="st2" d="M16.8,58c-3.2,0-5.8-2.6-5.8-5.8c0-0.4,0.1-0.8,0.2-1.3c0.1-0.4,0.4-0.7,0.8-0.8c0.5-0.1,0.9-0.2,1.3-0.2
			c3.2,0,5.8,2.6,5.8,5.8c0,0.4-0.1,0.8-0.2,1.3c-0.1,0.4-0.4,0.7-0.8,0.8C17.6,57.9,17.2,58,16.8,58z M17.9,56.9L17.9,56.9
			L17.9,56.9z M13,52c0,0.1,0,0.1,0,0.2c0,2.2,1.8,3.9,4,3.8c0-0.1,0-0.1,0-0.2C17,53.6,15.2,51.9,13,52z"/>
	</g>
</g>
<g>
	<path class="st0" d="M87,66c0,0.6-0.4,1-1,1H54v-1H87z"/>
</g>
<g>
	<path class="st2" d="M76,55h-1c-0.6,0-1-0.4-1-1v-4.9V48c-0.6,0.7-1.5,1.1-2.4,1.1h-0.2c-0.9,0-1.8-0.4-2.4-1.1v1.1V51
		c0,0.6-0.4,1-1,1h-3c-1.7,0-3,1.3-3,3v1c0.1,1.1,0.5,2.1,1.2,3c0.7,0.8,1.7,1.5,2.8,1.3c0.1,0,0.3-0.1,0.3-0.3
		c0-0.2-0.1-0.3-0.3-0.4l0,0c-0.8-0.1-1.4-0.7-1.7-1.4c-0.2-0.4-0.3-0.8-0.3-1.2c-0.1-0.6,0.4-1.1,0.9-1.1H69h1h4h3
		C77,55.4,76.6,55,76,55z"/>
	<circle class="st42" cx="70.5" cy="50.5" r="0.5"/>
	<circle class="st42" cx="72.5" cy="50.5" r="0.5"/>
	<g>
		<path class="st43" d="M67.2,56H68c0-1.1-0.7-2-1.6-2c-0.1,0-0.3,0-0.4,0.1C66.7,54.3,67.2,55.1,67.2,56z"/>
	</g>
</g>
</svg>
